<?xml version="1.0" encoding="UTF-8"?>
<!DOCTYPE svg PUBLIC "-//W3C//DTD SVG 1.1//EN" "http://www.w3.org/Graphics/SVG/1.1/DTD/svg11.dtd">
<!-- Creator: CorelDRAW 2021 (64-Bit) -->
<svg xmlns="http://www.w3.org/2000/svg" xml:space="preserve" width="439.017mm" height="82.6632mm" version="1.1" style="shape-rendering:geometricPrecision; text-rendering:geometricPrecision; image-rendering:optimizeQuality; fill-rule:evenodd; clip-rule:evenodd"
viewBox="0 0 66368.86 12496.68"
 xmlns:xlink="http://www.w3.org/1999/xlink"
 xmlns:xodm="http://www.corel.com/coreldraw/odm/2003">
 <defs>
  <style type="text/css">
   <![CDATA[
    .fil0 {fill:#2B628A;fill-rule:nonzero}
   ]]>
  </style>
   <clipPath id="id0">
    <path d="M3309.62 0l5820.39 0c1820.28,0 3309.62,1489.32 3309.62,3309.62l0 5877.45c0,1820.29 -1489.34,3309.62 -3309.62,3309.62l-5820.39 0c-1820.29,0 -3309.62,-1489.32 -3309.62,-3309.62l0 -5877.45c0,-1820.29 1489.32,-3309.62 3309.62,-3309.62z"/>
   </clipPath>
 </defs>
 <g id="Layer_x0020_1">
  <metadata id="CorelCorpID_0Corel-Layer"/>
  <g style="clip-path:url(#id0)">
   <image x="-11133.59" y="-2876.98" width="34775.05" height="18256.91" xlink:href="white-logo_Images\white-logo_ImgID1.png"/>
  </g>
  <polygon class="fil0" points="15418.26,10714.49 15418.26,10209.8 15867.86,10123.22 15867.86,7166.93 15103.45,7166.93 15057.21,7667.69 14420.7,7667.69 14420.7,6517.63 18165.01,6517.63 18165.01,7667.69 17524.57,7667.69 17478.32,7166.93 16709,7166.93 16709,10123.22 17161.55,10209.8 17161.55,10714.49 "/>
  <path id="_1" class="fil0" d="M19735.15 10775.48c-306.95,-0.98 -571.58,-67.89 -791.95,-202.67 -221.35,-133.79 -390.56,-320.72 -507.65,-559.77 -117.07,-240.05 -176.09,-514.53 -176.09,-826.39l0 -60.02c0,-309.9 59.02,-584.37 176.09,-823.42 117.09,-239.07 286.3,-425.98 505.68,-561.75 220.37,-135.76 483.04,-203.63 788,-203.63 309.9,0 573.56,67.88 792.95,203.63 219.39,135.77 387.61,322.68 504.69,560.77 117.07,238.07 176.09,512.55 176.09,824.41l0 60.02c0,311.86 -59.02,586.34 -176.09,826.39 -117.07,239.05 -285.3,425.98 -504.69,559.77 -219.39,134.77 -481.07,201.68 -787.04,202.67zm0 -646.35c146.58,0 265.62,-39.35 358.11,-118.05 91.49,-78.7 160.35,-188.89 204.62,-329.58 43.3,-141.67 65.91,-305.95 65.91,-494.84l0 -60.02c0,-184.95 -22.62,-347.27 -65.91,-488.93 -44.26,-140.68 -113.12,-251.86 -206.6,-331.54 -93.46,-79.68 -213.48,-119.04 -362.04,-119.04 -143.63,0 -262.67,39.35 -357.11,119.04 -94.44,79.68 -162.33,190.86 -205.61,331.54 -43.28,141.67 -64.93,303.98 -64.93,488.93l0 60.02c0,188.89 21.65,354.16 64.93,495.83 43.28,142.65 111.17,252.84 205.61,330.56 94.44,77.72 215.44,116.09 363.02,116.09z"/>
  <path id="_2" class="fil0" d="M21545.33 10714.49l0 -504.69 404.34 -86.58 0 -1933.15 -447.63 -86.58 0 -507.63 1230.72 0 37.39 446.65c104.28,-159.38 232.18,-283.33 385.65,-371.88 152.49,-88.54 326.62,-132.81 522.39,-132.81 309.9,0 551.91,99.35 727.02,297.11 174.14,197.74 261.7,508.62 261.7,931.65l0 1356.64 403.35 86.58 0 504.69 -1607.51 0 0 -504.69 360.06 -86.58 0 -1354.67c0,-208.56 -41.32,-357.12 -123.95,-444.68 -82.63,-87.55 -205.61,-131.83 -368.93,-131.83 -121,0 -226.26,25.58 -315.79,76.74 -89.53,51.16 -163.32,123.96 -223.32,217.42l0 1637.02 340.39 86.58 0 504.69 -1585.87 0z"/>
  <path id="_3" class="fil0" d="M25298.48 10714.49l0 -504.69 406.32 -86.58 0 -3311.43 -449.6 -86.58 0 -506.65 1287.79 0 0 3904.66 363.02 86.58 0 504.69 -1607.53 0zm1985.3 0l0 -478.12 237.09 -55.09 -5.9 -11.81 -616.84 -838.19 536.16 -550.92 1023.16 1339.92 385.63 89.53 0 504.69 -1559.3 0zm-829.34 -852.95l-404.34 -470.25 1354.67 -1238.6 5.91 -8.86 -319.74 -46.23 0 -501.74 1622.27 0 0 507.63 -403.35 100.35 -1855.43 1657.69z"/>
  <path id="_4" class="fil0" d="M30474.22 10775.48c-298.09,-0.98 -557.81,-65.91 -781.13,-197.75 -222.33,-131.83 -395.49,-312.84 -517.48,-543.05 -121.98,-231.18 -182.98,-493.86 -182.98,-789.98l0 -115.09c0,-309.9 58.04,-584.39 173.14,-823.44 115.11,-239.07 278.42,-426.97 488.95,-564.7 210.53,-137.72 458.44,-205.61 744.74,-203.63 282.34,0 519.44,56.07 712.27,167.25 191.83,112.14 337.44,272.51 437.78,482.05 100.35,209.54 149.54,462.37 149.54,760.48l0 458.44 -1832.81 0 -5.9 16.72c11.81,136.75 46.23,258.74 102.32,364.98 57.05,106.26 136.74,189.88 241.02,250.88 103.3,60 229.23,90.51 377.79,90.51 153.46,0 297.11,-19.68 430.9,-59.03 132.81,-39.35 263.65,-97.39 390.56,-174.12l227.26 518.46c-128.88,104.28 -290.23,189.86 -486,257.75 -194.79,68.86 -418.11,102.32 -669.97,103.3zm-602.07 -1926.27l1039.86 0 0 -74.77c0,-126.91 -16.72,-235.12 -50.18,-326.62 -33.44,-91.49 -87.55,-162.33 -161.33,-212.51 -73.79,-49.18 -169.21,-74.76 -286.28,-74.76 -112.16,0 -205.61,29.51 -282.35,88.54 -77.72,58.04 -137.74,138.7 -181.02,240.04 -43.28,102.32 -71.82,217.42 -87.56,346.3l8.86 13.77z"/>
  <path id="_5" class="fil0" d="M33589.89 10775.48c-298.09,-0.98 -557.81,-65.91 -781.13,-197.75 -222.33,-131.83 -395.49,-312.84 -517.48,-543.05 -121.98,-231.18 -182.98,-493.86 -182.98,-789.98l0 -115.09c0,-309.9 58.04,-584.39 173.14,-823.44 115.11,-239.07 278.42,-426.97 488.95,-564.7 210.53,-137.72 458.44,-205.61 744.74,-203.63 282.34,0 519.44,56.07 712.27,167.25 191.83,112.14 337.44,272.51 437.78,482.05 100.35,209.54 149.54,462.37 149.54,760.48l0 458.44 -1832.81 0 -5.9 16.72c11.81,136.75 46.23,258.74 102.32,364.98 57.05,106.26 136.74,189.88 241.02,250.88 103.3,60 229.23,90.51 377.79,90.51 153.46,0 297.11,-19.68 430.9,-59.03 132.81,-39.35 263.65,-97.39 390.56,-174.12l227.26 518.46c-128.88,104.28 -290.23,189.86 -486,257.75 -194.79,68.86 -418.11,102.32 -669.97,103.3zm-602.07 -1926.27l1039.86 0 0 -74.77c0,-126.91 -16.72,-235.12 -50.18,-326.62 -33.44,-91.49 -87.55,-162.33 -161.33,-212.51 -73.79,-49.18 -169.21,-74.76 -286.28,-74.76 -112.16,0 -205.61,29.51 -282.35,88.54 -77.72,58.04 -137.74,138.7 -181.02,240.04 -43.28,102.32 -71.82,217.42 -87.56,346.3l8.86 13.77z"/>
  <path id="_6" class="fil0" d="M35183.63 11913.73l0 -507.65 406.32 -86.56 0 -3129.45 -449.6 -86.58 0 -507.63 1221.88 0 40.33 363.02c92.47,-134.77 203.63,-238.07 334.48,-310.88 130.86,-72.81 286.3,-110.18 467.31,-110.18 251.84,0 466.32,68.86 645.35,206.6 179.05,137.72 315.81,328.58 411.23,574.53 94.44,245.95 142.65,533.21 142.65,861.81l0 60.98c0,306.95 -48.21,575.53 -142.65,805.72 -95.42,229.23 -233.16,408.28 -412.21,536.18 -180.04,127.89 -396.46,190.86 -650.28,191.84 -167.25,-0.98 -314.81,-30.51 -442.7,-91.49 -127.89,-60.02 -236.11,-149.54 -326.62,-266.61l0 902.14 406.3 86.56 0 507.65 -1651.79 0zm1763.95 -1784.6c215.44,0 370.88,-79.68 468.28,-239.07 97.39,-159.37 145.6,-375.81 145.6,-648.32l0 -60.98c0,-197.75 -21.65,-369.91 -65.91,-516.49 -44.26,-147.58 -112.16,-262.68 -203.65,-346.3 -91.49,-83.63 -207.58,-125.93 -350.23,-125.93 -115.11,0 -216.42,26.56 -303.98,78.7 -87.56,51.16 -157.4,125.93 -208.56,221.35l0 1366.49c51.16,88.54 121,155.44 208.56,201.67 87.56,46.24 190.86,68.88 309.9,68.88z"/>
  <path id="_7" class="fil0" d="M40308.21 10775.48c-298.09,-0.98 -557.81,-65.91 -781.13,-197.75 -222.33,-131.83 -395.49,-312.84 -517.48,-543.05 -121.98,-231.18 -182.98,-493.86 -182.98,-789.98l0 -115.09c0,-309.9 58.04,-584.39 173.14,-823.44 115.11,-239.07 278.42,-426.97 488.95,-564.7 210.53,-137.72 458.44,-205.61 744.74,-203.63 282.34,0 519.44,56.07 712.27,167.25 191.83,112.14 337.44,272.51 437.78,482.05 100.35,209.54 149.54,462.37 149.54,760.48l0 458.44 -1832.81 0 -5.9 16.72c11.81,136.75 46.23,258.74 102.32,364.98 57.05,106.26 136.74,189.88 241.02,250.88 103.3,60 229.23,90.51 377.79,90.51 153.46,0 297.11,-19.68 430.9,-59.03 132.81,-39.35 263.65,-97.39 390.56,-174.12l227.26 518.46c-128.88,104.28 -290.23,189.86 -486,257.75 -194.79,68.86 -418.11,102.32 -669.97,103.3zm-602.07 -1926.27l1039.86 0 0 -74.77c0,-126.91 -16.72,-235.12 -50.18,-326.62 -33.44,-91.49 -87.55,-162.33 -161.33,-212.51 -73.79,-49.18 -169.21,-74.76 -286.28,-74.76 -112.16,0 -205.61,29.51 -282.35,88.54 -77.72,58.04 -137.74,138.7 -181.02,240.04 -43.28,102.32 -71.82,217.42 -87.56,346.3l8.86 13.77z"/>
  <path id="_8" class="fil0" d="M41985.58 10714.49l0 -504.69 403.35 -86.58 0 -1933.15 -446.63 -86.58 0 -507.63 1230.72 0 31.47 386.63 5.91 68.86c76.72,-169.21 172.16,-297.11 285.3,-383.67 113.12,-86.58 248.9,-129.86 406.3,-129.86 50.18,0 105.26,4.91 164.3,13.77 60,7.86 113.12,19.67 158.39,32.46l-88.54 775.23 -418.11 -22.63c-119.04,-5.9 -215.46,14.75 -290.23,61 -73.77,45.26 -139.69,112.16 -196.76,198.72l0 1526.85 403.35 86.58 0 504.69 -1648.83 0z"/>
  <path id="_9" class="fil0" d="M45903.03 10714.49l0 -504.69 446.65 -86.58 0 -3011.38 -446.65 -86.58 0 -507.63 446.65 0 1418.63 0c493.86,0 878.51,96.4 1154.97,288.25 277.42,192.82 415.16,480.09 415.16,861.81 0,194.79 -51.16,367.93 -153.47,520.42 -103.3,152.49 -252.84,267.6 -448.61,344.32 167.25,36.4 306.95,101.33 419.1,192.82 113.12,92.47 196.76,204.63 252.83,336.46 55.1,131.84 83.63,275.47 83.63,430.91 0,401.39 -132.82,705.37 -398.44,911.97 -264.65,206.6 -640.46,309.9 -1126.44,309.9l-2064 0zm1288.77 -645.37l775.23 0c222.33,0 392.53,-49.19 509.6,-145.6 117.07,-97.4 176.1,-241.03 176.1,-430.9 0,-138.72 -21.65,-254.81 -65.91,-349.25 -44.28,-93.47 -112.16,-165.28 -203.65,-213.49 -91.49,-47.23 -208.56,-71.81 -353.18,-71.81l-838.19 0 0 1211.04zm0 -1793.44l605.04 0c224.3,0 397.44,-45.26 518.46,-137.74 121,-92.47 182,-227.26 182,-403.35 0,-194.79 -61,-337.44 -182.98,-429.91 -122,-92.49 -304,-137.74 -546,-137.74l-576.51 0 0 1108.74z"/>
  <path id="_10" class="fil0" d="M50840.69 10775.48c-308.91,-0.98 -554.86,-83.63 -737.84,-249.89 -182,-166.25 -273.51,-392.53 -273.51,-678.81 0,-195.77 53.14,-367.93 159.38,-515.51 107.23,-148.55 264.63,-264.63 473.2,-349.25 208.56,-84.6 465.33,-126.91 771.3,-126.91l412.21 0 0 -230.2c0,-149.54 -44.28,-271.53 -131.83,-365 -87.56,-92.47 -218.4,-139.69 -393.53,-139.69 -89.53,0 -171.18,11.81 -243,33.44 -71.81,21.65 -136.74,53.12 -194.79,93.46l-65.91 412.21 -606.02 0 -10.81 -809.65c163.3,-92.47 339.4,-167.25 530.26,-225.3 189.86,-57.05 402.37,-86.56 636.51,-86.56 407.28,0 728.99,95.42 966.07,284.32 236.12,188.88 354.17,459.42 354.17,811.62l0 1284.84c0,42.3 0,84.6 0.98,125.91 0.98,41.32 4.91,80.67 10.82,119.04l325.63 46.24 0 504.69 -1043.81 0c-20.65,-54.11 -42.3,-111.17 -62.96,-173.14 -21.63,-61 -36.39,-122.98 -46.23,-183.98 -100.35,126.91 -217.42,228.25 -353.19,304 -135.76,75.75 -294.14,113.14 -477.13,114.12zm225.28 -622.74c117.07,0 228.25,-26.56 334.49,-79.7 105.26,-53.12 186.91,-121.98 244.97,-208.56l0 -492.88 -415.16 0c-184.96,0 -324.65,42.31 -420.09,126.91 -94.44,84.61 -142.65,185.93 -142.65,304.98 0,111.16 35.42,197.74 105.26,257.75 70.84,60.98 168.23,91.49 293.18,91.49z"/>
  <path id="_11" class="fil0" d="M54244.61 10775.48c-290.23,-0.98 -513.54,-80.68 -669.97,-240.05 -157.4,-159.37 -235.12,-412.21 -235.12,-757.51l0 -1590.79 -429.91 0 0 -591.26 429.91 0 0 -763.42 838.19 0 0 763.42 573.55 0 0 591.26 -573.55 0 0 1587.83c0,121.02 25.56,207.58 76.72,259.72 51.16,51.16 121.02,77.72 208.58,77.72 46.23,0 96.4,-3.93 150.51,-10.81 53.12,-5.91 99.37,-13.77 137.74,-21.65l72.79 608.97c-86.56,24.6 -181.02,45.26 -281.35,61.98 -101.33,15.74 -200.7,23.61 -298.09,24.6z"/>
  <path id="_12" class="fil0" d="M56362.72 10775.48c-290.23,-0.98 -513.54,-80.68 -669.97,-240.05 -157.4,-159.37 -235.12,-412.21 -235.12,-757.51l0 -1590.79 -429.91 0 0 -591.26 429.91 0 0 -763.42 838.19 0 0 763.42 573.55 0 0 591.26 -573.55 0 0 1587.83c0,121.02 25.56,207.58 76.72,259.72 51.16,51.16 121.02,77.72 208.58,77.72 46.23,0 96.4,-3.93 150.51,-10.81 53.12,-5.91 99.37,-13.77 137.74,-21.65l72.79 608.97c-86.56,24.6 -181.02,45.26 -281.35,61.98 -101.33,15.74 -200.7,23.61 -298.09,24.6z"/>
  <path id="_13" class="fil0" d="M58676.59 10775.48c-298.09,-0.98 -557.81,-65.91 -781.13,-197.75 -222.33,-131.83 -395.49,-312.84 -517.48,-543.05 -121.98,-231.18 -182.98,-493.86 -182.98,-789.98l0 -115.09c0,-309.9 58.04,-584.39 173.14,-823.44 115.11,-239.07 278.42,-426.97 488.95,-564.7 210.53,-137.72 458.44,-205.61 744.74,-203.63 282.34,0 519.44,56.07 712.27,167.25 191.83,112.14 337.44,272.51 437.78,482.05 100.35,209.54 149.54,462.37 149.54,760.48l0 458.44 -1832.81 0 -5.9 16.72c11.81,136.75 46.23,258.74 102.32,364.98 57.05,106.26 136.74,189.88 241.02,250.88 103.3,60 229.23,90.51 377.79,90.51 153.46,0 297.11,-19.68 430.9,-59.03 132.81,-39.35 263.65,-97.39 390.56,-174.12l227.26 518.46c-128.88,104.28 -290.23,189.86 -486,257.75 -194.79,68.86 -418.11,102.32 -669.97,103.3zm-602.07 -1926.27l1039.86 0 0 -74.77c0,-126.91 -16.72,-235.12 -50.18,-326.62 -33.44,-91.49 -87.55,-162.33 -161.33,-212.51 -73.79,-49.18 -169.21,-74.76 -286.28,-74.76 -112.16,0 -205.61,29.51 -282.35,88.54 -77.72,58.04 -137.74,138.7 -181.02,240.04 -43.28,102.32 -71.82,217.42 -87.56,346.3l8.86 13.77z"/>
  <path id="_14" class="fil0" d="M60353.96 10714.49l0 -504.69 403.35 -86.58 0 -1933.15 -446.63 -86.58 0 -507.63 1230.72 0 31.47 386.63 5.91 68.86c76.72,-169.21 172.16,-297.11 285.3,-383.67 113.12,-86.58 248.9,-129.86 406.3,-129.86 50.18,0 105.26,4.91 164.3,13.77 60,7.86 113.12,19.67 158.39,32.46l-88.54 775.23 -418.11 -22.63c-119.04,-5.9 -215.46,14.75 -290.23,61 -73.77,45.26 -139.69,112.16 -196.76,198.72l0 1526.85 403.35 86.58 0 504.69 -1648.83 0z"/>
  <path id="_15" class="fil0" d="M63760.83 11973.74c-73.79,0 -150.53,-5.9 -232.18,-18.69 -81.65,-11.81 -159.37,-29.51 -232.18,-50.18l95.42 -616.84c36.4,7.88 76.74,13.77 121.02,17.72 43.28,3.93 82.63,4.91 115.11,4.91 121,0 225.28,-31.47 313.83,-94.44 88.54,-63.95 152.49,-154.46 192.82,-274.47l69.84 -192.82 -1043.79 -2591.32 -382.7 -54.11 0 -507.63 1653.76 0 0 507.63 -380.74 57.07 489.93 1375.34 61 170.19 17.7 0 578.47 -1551.44 -371.88 -51.16 0 -507.63 1542.58 0 0 507.63 -352.19 49.19 -1190.39 3026.15c-57.05,143.63 -130.84,275.46 -220.37,395.48 -88.54,121.02 -202.67,217.42 -339.4,290.23 -137.74,72.79 -305.96,109.19 -505.67,109.19z"/>
 </g>
</svg>
